<svg xmlns="http://www.w3.org/2000/svg" viewBox="0 0 5234.3 1575.7">
    <path d="M5234.3 5L4722 4.8c-433.8 0-785.4 350.7-785.4 783.4s351.7 783.4 785.4 783.4h512.3V5zm-2147.4-.2c279.3 0 524.5 145.8 663.8 365.4l-230.9 232.3c-72.6-167.1-239-284-432.8-284-260.5 0-471.7 211.2-471.7 471.7s211.2 471.7 471.7 471.7c182.8 0 341.4-104 419.7-256.1l234.2 219.7c-140.8 211.1-381.1 350.2-653.9 350.2-267.9 0-504.3-134.1-646.1-338.8-142.3 204.8-379.2 338.8-647.4 338.8-265.1 0-499.6-130.9-642.4-331.6-142.5 198.3-375.5 327.5-638.8 327.5H0V5l512.3-.1c263.1 0 496 129 638.5 327.1C1293.6 131.1 1528.2 0 1793.4 0c269.3 0 507 135.1 649.1 341.2C2584.4 137.9 2820.1 4.8 3086.9 4.8zm-2756 1251l181.4-.1c258.8 0 468.7-209.3 468.7-467.5S771.1 320.8 512.3 320.8H330.9v935zm1462.5-936.6c258.8 0 468.7 209.8 468.7 468.7 0 258.8-209.8 468.7-468.7 468.7-258.8 0-468.7-209.8-468.7-468.7.1-258.9 209.9-468.7 468.7-468.7zm3110 936.6l-181.4-.1c-258.8 0-468.7-209.3-468.7-467.5s209.8-467.5 468.7-467.5h181.4v935.1z"
          fill-rule="evenodd" clip-rule="evenodd" fill="#ff4538"/>
</svg>